<svg id="Layer_1" data-name="Layer 1" xmlns="http://www.w3.org/2000/svg" viewBox="0 0 1475.94 1611.64"><defs><style>.cls-1{fill:#94d7e7;}.cls-2{fill:#abdfe9;}.cls-3{fill:#ffca1e;}.cls-4{fill:#010101;}.cls-5{fill:#f27ba3;}.cls-6{fill:#292b2b;}</style></defs><path class="cls-1" d="M835.23,558.56h0C877.07,500.94,913.89,443,939,376.09c24.07-64,54.61-150.88,14.06-214.82-37.34-58.88-116.47-68.42-174.87-37.58C710.69,159.35,677.63,235.47,668.32,308c-4.78,37.16-1.93,74.4,3.4,111.34,6.7,46.38,14.89,92.77,22.92,138.93Z"/><path class="cls-2" d="M767.89,537.1c-31.29-71.55-30.15-160.8,10.49-228.69,9.19-15.37,24.51-36.7,43.15-41.1,22.87-5.4,37.65,22.11,42.18,40.14,10.11,40.21-8.08,80.06-25.69,115.25-20.15,40.26-37.52,81-49.67,124.47-1.69,6,7.68,8.61,9.36,2.59,13.6-48.6,34.91-92.46,56.39-137.84,17.3-36.54,31.29-79.87,14.88-119.38-6.59-15.86-19-32.24-37.1-35.16-17.73-2.86-33.4,10.53-44.56,22.66-28.53,31-43,75.48-48.47,116.49A272.27,272.27,0,0,0,759.5,542c2.5,5.71,10.87.77,8.39-4.9Z"/><path class="cls-3" d="M669.75,551a1340.58,1340.58,0,0,1,257-5.42c129,9.77,263.66,38.37,370.83,114.67,92,65.47,155.09,165.69,172.29,277.06.66,4.28,2.19,17.89,2.4,20,1.52,14.67,4.47,50.55,3.55,77.17-1.88,54-18.71,108.32-41.47,156.91-23.47,50.12-61.94,92.74-104.83,127.09-101.09,81-225.49,116.84-351.88,135.06a1238.85,1238.85,0,0,1-401-7.92c-126.56-23.34-255.09-65.37-365.22-133-92.54-56.84-181.66-139.73-205.44-250C-20.34,940.69,43.7,821.05,136.31,744.87,218.54,677.23,321,633.58,424,602.65c0,0,102.33,47.15,166.29,58.93s118,2.47,118,2.47l7-11.31Z"/><path class="cls-4" d="M1152.47,968.87c.4,2.58.91,5.17,1.09,7.78s1.74,5.26,4.45,5.84c18.54,4,34.13-19.33,22.57-34.71-2.15-2.86-4.76-4-8.3-3.38a23.7,23.7,0,0,0-18,15.38,20.9,20.9,0,0,0-.93,11.53,16.2,16.2,0,0,0,2.3,5.19,14.51,14.51,0,0,0,1.69,2.19s3.81,2.72,2.06,1.24c4.67,4,10.64-.9,8.22-6.34.9,2-.11-1.86-.14-2.08-.11-.69-.19-1.38-.24-2.08a10.39,10.39,0,0,1,.62-5.32c1.54-3.5,4.71-5,8.28-5.54l-8.3-3.37c5.6,7.81-3,13.72-9.88,15.6l7.46,4.23c-1-2.95-1.74-6-2.54-9-1.81-6.91-11.51-3.86-10.46,2.88Z"/><path class="cls-4" d="M1329.31,935.67a27.77,27.77,0,0,0-2,18.87c1.07,4.34,5.75,6.58,9.9,5.62a26.46,26.46,0,0,0,17.33-13.67c3.53-7,4.76-16.9-1.49-22.81-6-5.68-15.43-4.53-21.1,1.09-6.27,6.22-6.6,16.67-1.5,23.69,2.89,4,10.24,4.26,11.46-1.49.44-2.1.53-4.16.77-6.28.12-1.1,1-2.86.66-3.85-.09-.29.26-.5.34-.38.46.67-3.18-1.38-3-1.5-.27.16-1.71,4.59-2.2,5.24a13.72,13.72,0,0,1-5.57,4.44l7.83,2.07a4.79,4.79,0,0,0-.92-1.4c-.87-1.13-.78-1,.29.4.31-1.12.07-2.21.58-3.36,3.41-7.62-7.54-14.4-11.42-6.68Z"/><path class="cls-4" d="M1225.29,1066.85c12,23.28,29,50.47,59.29,46.31,30.73-4.22,45.07-37.72,49-64.93.86-6-6.94-8.3-9.09-2.51-7.71,20.74-16.34,47.6-42,52.15-23.1,4.1-37.89-19.58-47.75-36.55-3.57-6.14-12.67-.72-9.47,5.53Z"/><path class="cls-5" d="M1135.5,1051c-9.52-11.66-36-9.94-48.56-7.37-15.6,3.2-28.9,9.06-40.31,20.16-5.72,5.57-10.53,16.12-7.35,23.44,2.31,5.33,6.46,8,12,9.66a117.84,117.84,0,0,0,45.75,4c12.8-1.43,26-5.35,34.86-14.68S1143.64,1061,1135.5,1051Z"/><path class="cls-5" d="M1456.65,983.11c-5-6.93-22.06-8.13-37.09-3.05-6.41,2.17-15.74,3.86-24.5,10.89s-12.37,19.08-4.5,26.73c5.39,5.25,14.57,7.1,23.15,7.27,14.7.31,30-3.77,39.5-12.65S1463.87,993.2,1456.65,983.11Z"/><path class="cls-4" d="M371,1309.92c17.48,35.08,23.41,75.4,18.76,114.25a210.36,210.36,0,0,1-14.22,54.75c-6,14.49-21.65,31.86-20.71,47.73.26,4.37,4.25,8.06,8.79,6.69,16.55-5,24.25-27.47,30.19-42.25a221.79,221.79,0,0,0,15.06-64.17c3.64-43.3-6-85.53-26.09-123.88-4.09-7.81-15.67-.94-11.78,6.88Z"/><path class="cls-4" d="M246.1,1328.55a182.19,182.19,0,0,1-43,59.94c-17.7,16.44-39.2,25.85-57.86,40.55-8.17,6.44,1,17.46,9.24,15.87,24.73-4.77,48.44-25.89,64.86-44.05,17.62-19.49,30.81-42.17,40.7-66.42,3.25-8-10.44-13.8-14-5.89Z"/><path class="cls-4" d="M879,1380.54a314.13,314.13,0,0,1-1,117.14c-7.38,37.1-24.66,67.93-38.21,102.61-3.19,8.16,9.39,15.45,14.9,8.68,24.61-30.17,36.33-74.61,42.3-112.38,6.32-39.95,4.63-80.45-3.86-119.94-2-9.3-15.79-5.28-14.13,3.89Z"/><path class="cls-4" d="M995.39,1455.19a284.23,284.23,0,0,1,11.12,67.1c.87,19.37-4.06,40.55.3,59.36,1.57,6.77,11.9,8.26,15.14,2,9.66-18.78,6.8-44.25,4.73-64.69-2.34-23.24-7.86-46-15.32-68.14-3.37-10-19-5.93-16,4.4Z"/><path class="cls-4" d="M1317.06,720.71c5.27-51.56,15.48-108.67,40.45-154.74,21.8-40.19,64.29-60.68,101.86-27.46,5.76,5.09,16.45.31,13.74-8-17.09-52.31-90.73-32-117.34-.67-19.35,22.75-29.53,51.66-37.8,79.92a580,580,0,0,0-20.54,110.94c-1.13,12.62,18.36,12.42,19.63,0Z"/><path class="cls-4" d="M1128.57,731.2c-15.64-58.37-16.48-120.1-6.53-179.55,4.1-24.48,7.76-54.09,22.29-75,14.37-20.67,40.65-23.68,56.08-3,3.91,5.23,13.3,4.07,13.18-3.57-.38-24-27.34-33.76-47.83-31-29.82,4-45.87,32.31-53.74,58.64-22.69,75.94-22.59,162.35.08,238.07,3.15,10.5,19.32,6.12,16.47-4.54Z"/><path class="cls-4" d="M967,549.31q-20.22-2.19-40.34-3.7A1324.6,1324.6,0,0,0,792,542.31C736.52,650.54,702.55,785,685.72,900.91c-17.63,121.33-11.53,244.69,7.3,365.51,9.65,61.86,34.13,140.2,70.63,199.12a1236.52,1236.52,0,0,0,182-7.85c-32.83-58.78-61.89-148-73.09-202.36-11.62-56.42-24.28-138-26.45-195.54C841.88,948.74,857,857.92,884,749.92,898.3,692.69,935.32,603.13,967,549.31Z"/><path class="cls-4" d="M529,644.61c-53-18-105-42-105-42q-29.6,8.88-59,19.25c-35,90.47-58,190.19-70.86,279-17.63,121.33-11.53,244.69,7.31,365.51a606.34,606.34,0,0,0,27.21,106.33c69.37,29.48,142.57,51.22,215.69,66.53-28.76-57.79-53.32-135-63.41-184a1044.08,1044.08,0,0,1-20.3-171.3c-4.19-111.06,4.79-226.11,31.78-334.11C499.85,720.33,513.32,682.09,529,644.61Z"/><path class="cls-4" d="M355.66,183.15c-38.68-2.26-93.77,17.56-107.34,58-.85,2.53,2.6,4.36,4.38,2.55,14.19-14.46,24.16-29.2,42.54-39.4,18.65-10.36,39.22-14.66,60.42-13.5,4.95.27,4.92-7.4,0-7.69Z"/><path class="cls-4" d="M312.15,116.21c-66.38.6-145,33.11-178.75,93.54-1.61,2.89,2.33,6.18,4.7,3.62,22.85-24.76,44.54-47.74,74.69-63.86a215.6,215.6,0,0,1,99.36-25.25c5.18-.06,5.2-8.1,0-8.05Z"/><path class="cls-4" d="M937.15,82.3A128.67,128.67,0,0,1,987.8,114c13.79,14.13,19.44,31.65,30.94,46.83,1.54,2,5.53,1.7,5.35-1.45C1023,140.35,1006.87,121,993.78,108a140.28,140.28,0,0,0-54.55-33.26c-4.78-1.61-6.8,5.9-2.08,7.52Z"/><path class="cls-4" d="M963.8,7.5a219,219,0,0,1,99.12,117.59c5.74,16.24,7.32,33.77,13.4,49.74,1.19,3.14,5.21,2.45,5.63-.76,4.33-33.4-17.06-74.19-35.11-100.95a231.25,231.25,0,0,0-79-72.57c-4.53-2.54-8.58,4.4-4.07,7Z"/><path class="cls-6" d="M873.56,1464a103.23,103.23,0,0,1-8.82-40.88c18.18-8.13,35.54-20.39,49.56-32.59-3.21-8-6.31-16.18-9.29-24.33l-.92.84a216.64,216.64,0,0,1-35,26.43,98.32,98.32,0,0,1,3.59-9.83c5.63-13.12,14.45-26.55,25.63-36.46-2.85-8.36-5.55-16.66-8.08-24.8-10.72,8.08-20,18.87-26.45,27.94a122.24,122.24,0,0,0-21.9,55.47c-16.87,4.83-33.09,3.29-44-11.69-10.16-13.9-13.61-32.48-15-49.27-.6-7.42-1-14.92-1.05-22.42,24.87-7.1,49.12-17.83,71.65-30.19,8-4.39,16.2-9.11,24.28-14.17-2-8-3.76-15.67-5.21-22.7-.2-.95-.39-1.93-.59-2.89a339.22,339.22,0,0,1-89,44.13c.5-4.81,1.15-9.61,2-14.36,7.14-38.5,28.14-75.3,67-88.56a90,90,0,0,1,8.84-2.53c-1.29-7.93-2.53-16-3.72-24.07l-.32.06c-52.59,11.06-85.83,58.12-95.19,108.65a245.41,245.41,0,0,0-3.42,27.39c-16.86,3.16-34.51,3.14-49.72-5.7a40.43,40.43,0,0,1-11.64-10c2.27,11.44,5,23.26,8.14,35.28,16.45,6.87,34.81,7.7,52.64,5.12A266.17,266.17,0,0,0,760,1358c3.09,22,10.42,45.84,27.75,60.88,15.57,13.51,34.27,15.94,53.28,12a129.31,129.31,0,0,0,7.07,34.27Q860.86,1464.71,873.56,1464Z"/><path class="cls-6" d="M788.17,563q-3.64.91-7.27,1.87c-9.37,19.91-18.07,40.56-26.12,61.69A532.51,532.51,0,0,0,914,556.6a12.5,12.5,0,0,0,5.63-11.48Q882,542.47,844.19,542a267.4,267.4,0,0,0-43.94,15.26Q794.13,560,788.17,563Zm5.27,24.68c1.19-.66,2.41-1.28,3.61-1.92q8-2,16-3.77-13.57,5.51-27.44,10.23Q789.49,589.94,793.44,587.72Z"/><path class="cls-6" d="M764.17,1035.23l4.79-1.6a674.28,674.28,0,0,0-56.23,42.08c-12.31,10.27-24.61,20.91-36.14,32.2q.78,16.62,2,33.22c4.19-6.92,12.44-13.1,18.08-18.5q19.77-19,41.1-36.18a641.61,641.61,0,0,1,91.6-61.57q8-4.44,16.09-8.62.14-17.29.91-34.1l-74.84,25-80.45,26.93c-5,1.69-10.33,3.55-15.74,5.29q-.13,12.58,0,25.18l1.77-.49C706.41,1055.61,735.22,1044.92,764.17,1035.23Z"/><path class="cls-6" d="M705.78,1183A208.14,208.14,0,0,0,685,1207.81q2.53,21.36,5.66,42.65c.31-1.16.65-2.32,1-3.48,7.33-22,23.8-39.73,40-55.56a582,582,0,0,1,56.43-48.55c6.62-5,13.38-9.75,20.2-14.44q20.91-8.42,41.61-17.33c-1.27-12.15-2.31-24-3-35.12l-.67.38q-25.47,14.09-49.48,30.59-52,20.79-105.13,38.44c-3.24,1.07-9,3.62-12.46,3.67q1,12.33,2.13,24.63c11.8-1.34,24.44-7.4,34.08-10.69q8.86-3,17.72-6.16C723.69,1165.24,714.55,1173.92,705.78,1183Z"/><path class="cls-6" d="M905.59,682.41q-25.3,9.23-50,20.12A302.65,302.65,0,0,1,812.71,707c9.4-14.46,24.85-25.38,38.29-35.48a632.5,632.5,0,0,1,61.13-40.59c6.24-3.63,12.55-7.12,18.91-10.53C936.58,608,942.27,596,948,584.6c-3.49,1.66-7,3.33-10.43,5q-14.49,5.21-29.08,10.18C864.72,614.7,819.81,629,773.55,633.09c-7.18.63-14.41,1-21.64,1.16q-4.63,12.48-9,25.15c14.75.57,30.56-1.78,44-3.48A476.41,476.41,0,0,0,848,643.81c-6.77,4.88-13.48,9.85-20.06,15-19.69,15.35-39,32.14-45.67,57.15A12.29,12.29,0,0,0,794,731.31c1,0,2,0,3,0q-12.48,6.79-24.74,14A786.7,786.7,0,0,0,706.46,789q-4.1,18.11-7.67,36c6.85-5.42,13.87-10.66,20.87-15.81A783.81,783.81,0,0,1,795.46,760q32.79-18.72,67.23-34.07,15.3-2.86,30.28-7.15C896.68,707.17,900.92,694.93,905.59,682.41Z"/><path class="cls-6" d="M854.89,892.83c1.23-8.57,2.54-17.14,4-25.73a9.55,9.55,0,0,0-6.15.48c-1,.39-1.93.82-2.9,1.22h0l-.61.26c-5.48,2.27-11,4.59-16.37,7q-58.23,24.47-118.34,44.07-16.23,5.31-32.59,10.24-1.49,13.07-2.64,26.15l6.4-1.92q11.13-3.35,22.2-6.86-15.17,10.93-29.72,22.69-1.23,16.59-1.93,33.21A659.36,659.36,0,0,1,840.4,899C845.24,897,850.06,894.9,854.89,892.83Z"/><path class="cls-6" d="M781.61,804q-43.38,16.34-85.66,35.7-3.53,18.66-6.49,36.94a1174.55,1174.55,0,0,0,178-54.86c3.37-16.28,7.07-32.77,11.11-49.63-6.66,1.69-13.27,3.6-19.84,5.59Q819.76,789.6,781.61,804Z"/><path class="cls-6" d="M466.71,897.36Q452.9,902.94,438.87,908c-31.57-27.82-78.06-37.18-119.11-24.19,13.34-19.17,33-32.88,54.13-43A247.5,247.5,0,0,1,400.7,830q13.05-.59,26-2.3c14.22-1.9,30.19-3.76,43.25-10.65q4.11-.15,8.2-.15,3.79-21.12,8.43-42c-7.09-13.38-22.23-19.65-36-23.84-35.32-10.77-72.89-12.51-109.24-6.58q-8.22,1.35-16.4,3.3-3.48,13.41-6.66,26.83a217.66,217.66,0,0,1,108.45-4.67c11,2.38,25.87,4.7,34.83,12.25,5.62,4.73,4.35,8.46.46,11.31-5.31.36-10.61.87-15.87,1.56A294.56,294.56,0,0,0,396,806a263.09,263.09,0,0,1-51-3.51,269.53,269.53,0,0,1-31.59-6.89q-2.65,12-5.05,23.83a246.26,246.26,0,0,0,39.11,8c-19.43,11.62-36.44,26.45-48.89,45-1.59,9.59-3.09,19.11-4.45,28.48a1033.92,1033.92,0,0,0-10.41,137.84c4.44,13.43,11.56,25.24,22.37,32.85a83.94,83.94,0,0,0-21.95,13.12q.48,17.31,1.45,34.62c.47-.73.92-1.48,1.41-2.21,17.14-25.44,44.56-31.17,73.49-25.41,13.14,2.62,28.58,6,40.18,13,13.82,8.25,13.85,23.8,5.67,36.44-7,10.81-18.62,17.83-29.5,24.18-13.68,8-27.56,15.77-41.73,22.86-10.76,5.39-26.26,13.39-41.94,17.93q1.38,11.64,2.92,23.27c31.89-7.6,61.8-25.2,89.74-41.21,27.32-15.65,58.82-41.59,48.92-77.46-6.38-23.08-30.93-34.44-55.17-40.19q2.78-1.08,5.52-2.19c18-7.27,36-15,51.56-26.86A101.42,101.42,0,0,0,459.8,1017c.3-26.09,1.34-52.28,3.23-78.42a106.62,106.62,0,0,0-6.77-11.1c2.64-1,5.27-2,7.9-3C464.92,915.38,465.75,906.36,466.71,897.36ZM304.52,917.8c27.62-16.82,60.79-22.44,92.65-8a103.18,103.18,0,0,1,13.76,7.59q-36,11.36-73,19.17c-11.56,2.44-24.53,5.76-37.66,8A156.17,156.17,0,0,1,304.52,917.8Zm144.56,55.5c1.66,30.11-25.85,50.74-49.88,62.61-20.07,9.91-58.29,30.51-80.06,15.68-20.46-13.95-18.42-53.15-19.28-74.88-.1-2.56-.17-5.14-.23-7.72,14.86-2.3,29.48-5.87,42.6-8.59a775.55,775.55,0,0,0,90.12-24.5C441.72,946.71,448.33,959.54,449.08,973.3Z"/><path class="cls-6" d="M423.39,1308.17c5.7-3.15,11.3-6.4,16.75-9.72,13.64-8.3,29.65-18.06,43.8-29.67-1.09-4.68-2.09-9.18-3-13.45-1-5-2-10-2.9-14.94-.32.29-.63.6-.94.89-14.52,13.58-31.06,25.38-48.29,35.76,1.15-5.26,2.36-10.49,3.72-15.69,5.66-21.75,13.2-61.5,37.25-71.45-1.13-8.19-2.13-16.39-3.05-24.61-31.12,8.44-43.89,43.84-52.68,72.27a398.08,398.08,0,0,0-12.74,54.64C377,1304.52,350,1316,322.77,1319.05a99,99,0,0,1-10.21.64q3,11.83,6.64,23.87a154.79,154.79,0,0,0,20.38-2.78c19.54-4,38.92-10.84,57.53-19.33-1.46,12.06-2.18,24.37-.2,35.73,3,17,17,26.79,29.38,37.26l26,22q22.83,6.6,45.84,12.28c.22-3-.91-6-4-8.63l-39.85-33.64q-9.06-7.64-18.11-15.29c-5.53-4.67-13.05-9.51-15.19-16.77-3.75-12.69.38-30.22,1.94-43.16C423.09,1310.2,423.26,1309.19,423.39,1308.17Z"/><path class="cls-6" d="M360.32,634.41q-5,13.56-9.71,27.33A227.13,227.13,0,0,1,450,654.33a215,215,0,0,1,66.53,21.53c2.86-7.51,5.85-15.09,8.94-22.68A244.76,244.76,0,0,0,360.32,634.41Z"/><path class="cls-1" d="M724.3,660.27v0a9,9,0,0,0-.72-2.44c-23.67-84-69.87-160.21-127.56-225.61C539.84,368.51,463.49,305.13,378.1,287.94c-44.77-9-83.44.1-114.86,34.46-26.69,29.18-30.54,70-24.23,107.45,14.71,87.28,94.08,143.71,168.45,180A621.36,621.36,0,0,0,554.8,659.59c51.36,10.53,108.26,18.51,160.57,11.89a10,10,0,0,0,8-5.64A6.21,6.21,0,0,0,724.3,660.27Z"/><path class="cls-2" d="M654.25,608.76C610.83,556.91,568,504.44,523.75,453.32c-20.37-23.51-41.64-46.37-65.29-66.65-18.37-15.74-41.48-34.24-67.29-26.13-44.55,14-57.53,71.42-46.23,111.42,13.52,47.83,57.41,79.83,101.4,97.77,33.55,13.69,69.17,20.88,104.19,29.69,33.12,8.33,66.2,14.74,100.29,17.63,6.22.53,6.19-9.18,0-9.71C596.21,602.7,542.13,589,489.5,574.06c-47.87-13.54-98.45-35.77-124.78-80.58-21.85-37.19-20.6-99,22.92-121,29-14.65,57.31,14.46,76.9,32.63s37.71,38.09,55.19,58.38c43.19,50.16,85.16,101.41,127.65,152.15,4,4.8,10.86-2.1,6.87-6.87Z"/></svg>