<?xml version="1.0" encoding="UTF-8" standalone="no"?>
<!DOCTYPE svg PUBLIC "-//W3C//DTD SVG 1.1//EN" "http://www.w3.org/Graphics/SVG/1.1/DTD/svg11.dtd">
<svg width="100%" height="100%" viewBox="0 0 871 495" version="1.1" xmlns="http://www.w3.org/2000/svg" xmlns:xlink="http://www.w3.org/1999/xlink" xml:space="preserve" xmlns:serif="http://www.serif.com/" style="fill-rule:evenodd;clip-rule:evenodd;stroke-linejoin:round;stroke-miterlimit:2;">
    <g transform="matrix(1,0,0,1,-521,-270)">
        <g transform="matrix(1,0,0,1,413.963,-183.447)">
            <g transform="matrix(1,0,0,1.05,0,-34.7462)">
                <g transform="matrix(250,0,0,250,100.434,694.925)">
                    <path d="M0.21,-0.118L0.521,-0.118L0.521,-0L0.063,-0L0.063,-0.711L0.21,-0.711L0.21,-0.118Z" style="fill-rule:nonzero;"/>
                </g>
                <g transform="matrix(250,0,0,250,214.101,694.925)">
                    <path d="M0.562,-0.273C0.562,-0.217 0.551,-0.168 0.529,-0.125C0.507,-0.083 0.476,-0.05 0.435,-0.027C0.395,-0.004 0.349,0.008 0.297,0.008C0.246,0.008 0.199,-0.004 0.159,-0.026C0.118,-0.049 0.087,-0.082 0.065,-0.124C0.043,-0.166 0.032,-0.215 0.031,-0.27L0.031,-0.295C0.031,-0.351 0.042,-0.4 0.064,-0.443C0.086,-0.486 0.117,-0.518 0.157,-0.542C0.198,-0.565 0.244,-0.577 0.296,-0.577C0.348,-0.577 0.394,-0.565 0.434,-0.542C0.474,-0.52 0.505,-0.487 0.528,-0.445C0.55,-0.402 0.561,-0.353 0.562,-0.298L0.562,-0.273ZM0.42,-0.295C0.42,-0.349 0.409,-0.391 0.387,-0.419C0.366,-0.448 0.335,-0.463 0.296,-0.463C0.256,-0.463 0.225,-0.448 0.204,-0.419C0.183,-0.391 0.173,-0.349 0.173,-0.295L0.173,-0.273C0.173,-0.22 0.184,-0.178 0.205,-0.149C0.227,-0.119 0.257,-0.104 0.297,-0.104C0.335,-0.104 0.365,-0.119 0.387,-0.148C0.409,-0.178 0.42,-0.22 0.42,-0.274L0.42,-0.295Z" style="fill-rule:nonzero;"/>
                </g>
                <g transform="matrix(250,0,0,250,342.539,694.925)">
                    <path d="M0.523,-0.569L0.523,-0.201C0.523,-0.136 0.502,-0.085 0.46,-0.048C0.418,-0.011 0.36,0.008 0.285,0.008C0.211,0.008 0.152,-0.011 0.109,-0.048C0.067,-0.085 0.045,-0.136 0.045,-0.2L0.045,-0.569L0.187,-0.569L0.187,-0.194C0.189,-0.135 0.222,-0.106 0.285,-0.106C0.317,-0.106 0.341,-0.113 0.357,-0.128C0.374,-0.143 0.382,-0.167 0.382,-0.2L0.382,-0.569L0.523,-0.569Z" style="fill-rule:nonzero;"/>
                </g>
                <g transform="matrix(250,0,0,250,464.995,694.925)">
                    <rect x="0.058" y="-0.569" width="0.142" height="0.569" style="fill-rule:nonzero;"/>
                </g>
                <g transform="matrix(250,0,0,250,509.326,694.925)">
                    <path d="M0.365,-0.153C0.365,-0.172 0.357,-0.187 0.341,-0.198C0.325,-0.21 0.298,-0.22 0.259,-0.229C0.221,-0.238 0.189,-0.248 0.162,-0.258C0.136,-0.268 0.115,-0.28 0.098,-0.294C0.081,-0.308 0.068,-0.325 0.06,-0.343C0.052,-0.361 0.048,-0.383 0.048,-0.409C0.048,-0.458 0.068,-0.498 0.109,-0.529C0.15,-0.561 0.202,-0.577 0.266,-0.577C0.336,-0.577 0.393,-0.561 0.436,-0.529C0.479,-0.497 0.5,-0.454 0.5,-0.399L0.359,-0.399C0.359,-0.42 0.351,-0.437 0.334,-0.451C0.317,-0.465 0.295,-0.472 0.267,-0.472C0.242,-0.472 0.221,-0.467 0.206,-0.456C0.19,-0.444 0.182,-0.431 0.182,-0.414C0.182,-0.397 0.19,-0.384 0.207,-0.374C0.223,-0.364 0.25,-0.354 0.288,-0.344C0.363,-0.328 0.418,-0.305 0.45,-0.275C0.483,-0.246 0.5,-0.207 0.5,-0.157C0.5,-0.106 0.479,-0.066 0.439,-0.036C0.399,-0.007 0.345,0.008 0.275,0.008C0.228,0.008 0.186,0 0.147,-0.015C0.109,-0.03 0.08,-0.052 0.059,-0.081C0.039,-0.109 0.028,-0.142 0.028,-0.181L0.17,-0.181C0.17,-0.151 0.179,-0.129 0.198,-0.116C0.217,-0.102 0.245,-0.096 0.282,-0.096C0.308,-0.096 0.328,-0.101 0.343,-0.111C0.357,-0.122 0.365,-0.136 0.365,-0.153Z" style="fill-rule:nonzero;"/>
                </g>
                <g transform="matrix(250,0,0,250,623.237,694.925)">
                    <path d="M0.425,-0.237L0.19,-0.237L0.19,-0.114L0.466,-0.114L0.466,-0L0.048,-0L0.048,-0.569L0.467,-0.569L0.467,-0.455L0.19,-0.455L0.19,-0.351L0.425,-0.351L0.425,-0.237Z" style="fill-rule:nonzero;"/>
                </g>
            </g>
            <g transform="matrix(1,0,0,1.05,0,-47.2462)">
                <g transform="matrix(250,0,0,250,100.434,944.925)">
                    <path d="M0.259,0.009C0.194,0.009 0.141,-0.005 0.102,-0.033C0.062,-0.062 0.042,-0.099 0.042,-0.144C0.042,-0.18 0.055,-0.212 0.082,-0.24C0.096,-0.255 0.121,-0.274 0.158,-0.297C0.132,-0.324 0.114,-0.348 0.103,-0.369C0.093,-0.39 0.088,-0.413 0.088,-0.437C0.088,-0.477 0.104,-0.51 0.136,-0.537C0.168,-0.563 0.21,-0.577 0.261,-0.577C0.316,-0.577 0.359,-0.563 0.391,-0.536C0.423,-0.509 0.439,-0.473 0.439,-0.429C0.439,-0.38 0.41,-0.337 0.352,-0.299L0.326,-0.282L0.427,-0.181C0.444,-0.208 0.452,-0.24 0.452,-0.276L0.573,-0.276C0.573,-0.205 0.552,-0.145 0.51,-0.097L0.608,-0L0.455,-0L0.426,-0.029C0.377,-0.003 0.321,0.009 0.259,0.009ZM0.261,-0.103C0.291,-0.103 0.317,-0.107 0.34,-0.115L0.233,-0.222L0.211,-0.208C0.193,-0.194 0.183,-0.178 0.183,-0.159C0.183,-0.142 0.19,-0.128 0.203,-0.118C0.217,-0.108 0.236,-0.103 0.261,-0.103ZM0.209,-0.422C0.209,-0.412 0.213,-0.401 0.221,-0.391C0.228,-0.38 0.238,-0.369 0.25,-0.356L0.271,-0.37C0.285,-0.379 0.297,-0.388 0.305,-0.396C0.313,-0.405 0.316,-0.416 0.316,-0.428C0.316,-0.439 0.311,-0.449 0.301,-0.457C0.291,-0.465 0.278,-0.469 0.262,-0.469C0.245,-0.469 0.231,-0.465 0.223,-0.455C0.214,-0.446 0.209,-0.435 0.209,-0.422Z" style="fill-rule:nonzero;"/>
                </g>
                <g transform="matrix(250,0,0,250,285.41,944.925)">
                    <path d="M0.465,-0.146L0.208,-0.146L0.159,-0L0.003,-0L0.268,-0.711L0.404,-0.711L0.67,-0L0.514,-0L0.465,-0.146ZM0.248,-0.265L0.425,-0.265L0.336,-0.531L0.248,-0.265Z" style="fill-rule:nonzero;"/>
                </g>
                <g transform="matrix(250,0,0,250,433.623,944.925)">
                    <path d="M0.401,-0.108L0.181,-0.108L0.141,-0L-0,-0L0.225,-0.569L0.357,-0.569L0.584,-0L0.442,-0L0.401,-0.108ZM0.219,-0.212L0.362,-0.212L0.291,-0.404L0.219,-0.212Z" style="fill-rule:nonzero;"/>
                </g>
                <g transform="matrix(250,0,0,250,559.619,944.925)">
                    <path d="M0.278,-0.196L0.19,-0.196L0.19,-0L0.048,-0L0.048,-0.569L0.286,-0.569C0.358,-0.569 0.414,-0.554 0.455,-0.524C0.495,-0.494 0.515,-0.452 0.515,-0.398C0.515,-0.358 0.507,-0.324 0.49,-0.298C0.473,-0.272 0.446,-0.25 0.408,-0.234L0.537,-0.006L0.537,-0L0.385,-0L0.278,-0.196ZM0.19,-0.31L0.286,-0.31C0.345,-0.31 0.374,-0.334 0.374,-0.383C0.374,-0.431 0.343,-0.455 0.282,-0.455L0.19,-0.455L0.19,-0.31Z" style="fill-rule:nonzero;"/>
                </g>
                <g transform="matrix(250,0,0,250,679.023,944.925)">
                    <path d="M0.562,-0.273C0.562,-0.217 0.551,-0.168 0.529,-0.125C0.507,-0.083 0.476,-0.05 0.435,-0.027C0.395,-0.004 0.349,0.008 0.297,0.008C0.246,0.008 0.199,-0.004 0.159,-0.026C0.118,-0.049 0.087,-0.082 0.065,-0.124C0.043,-0.166 0.032,-0.215 0.031,-0.27L0.031,-0.295C0.031,-0.351 0.042,-0.4 0.064,-0.443C0.086,-0.486 0.117,-0.518 0.157,-0.542C0.198,-0.565 0.244,-0.577 0.296,-0.577C0.348,-0.577 0.394,-0.565 0.434,-0.542C0.474,-0.52 0.505,-0.487 0.528,-0.445C0.55,-0.402 0.561,-0.353 0.562,-0.298L0.562,-0.273ZM0.42,-0.295C0.42,-0.349 0.409,-0.391 0.387,-0.419C0.366,-0.448 0.335,-0.463 0.296,-0.463C0.256,-0.463 0.225,-0.448 0.204,-0.419C0.183,-0.391 0.173,-0.349 0.173,-0.295L0.173,-0.273C0.173,-0.22 0.184,-0.178 0.205,-0.149C0.227,-0.119 0.257,-0.104 0.297,-0.104C0.335,-0.104 0.365,-0.119 0.387,-0.148C0.409,-0.178 0.42,-0.22 0.42,-0.274L0.42,-0.295Z" style="fill-rule:nonzero;"/>
                </g>
                <g transform="matrix(250,0,0,250,807.46,944.925)">
                    <path d="M0.556,-0L0.415,-0L0.19,-0.354L0.19,-0L0.048,-0L0.048,-0.569L0.19,-0.569L0.415,-0.214L0.415,-0.569L0.556,-0.569L0.556,-0Z" style="fill-rule:nonzero;"/>
                </g>
            </g>
        </g>
        <g id="bumblebee.svg" transform="matrix(0.12333,-0.0185228,0.0185228,0.12333,1293.51,375.842)">
            <g transform="matrix(1,0,0,1,-737.97,-805.82)">
                <clipPath id="_clip1">
                    <rect x="0" y="0" width="1475.94" height="1611.64"/>
                </clipPath>
                <g clip-path="url(#_clip1)">
                    <path d="M835.23,558.56C877.07,500.94 913.89,443 939,376.09C963.07,312.09 993.61,225.21 953.06,161.27C915.72,102.39 836.59,92.85 778.19,123.69C710.69,159.35 677.63,235.47 668.32,308C663.54,345.16 666.39,382.4 671.72,419.34C678.42,465.72 686.61,512.11 694.64,558.27L835.23,558.56Z" style="fill:rgb(148,215,231);fill-rule:nonzero;"/>
                    <path d="M767.89,537.1C736.6,465.55 737.74,376.3 778.38,308.41C787.57,293.04 802.89,271.71 821.53,267.31C844.4,261.91 859.18,289.42 863.71,307.45C873.82,347.66 855.63,387.51 838.02,422.7C817.87,462.96 800.5,503.7 788.35,547.17C786.66,553.17 796.03,555.78 797.71,549.76C811.31,501.16 832.62,457.3 854.1,411.92C871.4,375.38 885.39,332.05 868.98,292.54C862.39,276.68 849.98,260.3 831.88,257.38C814.15,254.52 798.48,267.91 787.32,280.04C758.79,311.04 744.32,355.52 738.85,396.53C732.273,445.992 739.418,496.323 759.5,542C762,547.71 770.37,542.77 767.89,537.1Z" style="fill:rgb(171,223,233);fill-rule:nonzero;"/>
                    <path d="M669.75,551C755.045,540.965 841.108,539.15 926.75,545.58C1055.75,555.35 1190.41,583.95 1297.58,660.25C1389.58,725.72 1452.67,825.94 1469.87,937.31C1470.53,941.59 1472.06,955.2 1472.27,957.31C1473.79,971.98 1476.74,1007.86 1475.82,1034.48C1473.94,1088.48 1457.11,1142.8 1434.35,1191.39C1410.88,1241.51 1372.41,1284.13 1329.52,1318.48C1228.43,1399.48 1104.03,1435.32 977.64,1453.54C844.432,1472.7 708.988,1470.02 576.64,1445.62C450.08,1422.28 321.55,1380.25 211.42,1312.62C118.88,1255.78 29.76,1172.89 5.98,1062.62C-20.34,940.69 43.7,821.05 136.31,744.87C218.54,677.23 321,633.58 424,602.65C424,602.65 526.33,649.8 590.29,661.58C654.25,673.36 708.29,664.05 708.29,664.05L715.29,652.74L669.75,551Z" style="fill:rgb(255,202,30);fill-rule:nonzero;"/>
                    <path d="M1152.47,968.87C1152.87,971.45 1153.38,974.04 1153.56,976.65C1153.74,979.26 1155.3,981.91 1158.01,982.49C1176.55,986.49 1192.14,963.16 1180.58,947.78C1178.43,944.92 1175.82,943.78 1172.28,944.4C1163.98,945.946 1157.1,951.819 1154.28,959.78C1152.89,963.459 1152.57,967.456 1153.35,971.31C1153.81,973.162 1154.58,974.919 1155.65,976.5C1156.14,977.282 1156.71,978.015 1157.34,978.69C1157.97,979.365 1161.15,981.41 1159.4,979.93C1164.07,983.93 1170.04,979.03 1167.62,973.59C1168.52,975.59 1167.51,971.73 1167.48,971.51C1167.37,970.82 1167.29,970.13 1167.24,969.43C1166.98,967.633 1167.19,965.799 1167.86,964.11C1169.4,960.61 1172.57,959.11 1176.14,958.57L1167.84,955.2C1173.44,963.01 1164.84,968.92 1157.96,970.8L1165.42,975.03C1164.42,972.08 1163.68,969.03 1162.88,966.03C1161.07,959.12 1151.37,962.17 1152.42,968.91L1152.47,968.87Z" style="fill:rgb(1,1,1);fill-rule:nonzero;"/>
                    <path d="M1329.31,935.67C1326.45,941.529 1325.74,948.212 1327.31,954.54C1328.38,958.88 1333.06,961.12 1337.21,960.16C1344.7,958.346 1351.03,953.35 1354.54,946.49C1358.07,939.49 1359.3,929.59 1353.05,923.68C1347.05,918 1337.62,919.15 1331.95,924.77C1325.68,930.99 1325.35,941.44 1330.45,948.46C1333.34,952.46 1340.69,952.72 1341.91,946.97C1342.35,944.87 1342.44,942.81 1342.68,940.69C1342.8,939.59 1343.68,937.83 1343.34,936.84C1343.25,936.55 1343.6,936.34 1343.68,936.46C1344.14,937.13 1340.5,935.08 1340.68,934.96C1340.41,935.12 1338.97,939.55 1338.48,940.2C1337.05,942.144 1335.12,943.676 1332.91,944.64L1340.74,946.71C1340.52,946.193 1340.21,945.719 1339.82,945.31C1338.95,944.18 1339.04,944.31 1340.11,945.71C1340.42,944.59 1340.18,943.5 1340.69,942.35C1344.1,934.73 1333.15,927.95 1329.27,935.67L1329.31,935.67Z" style="fill:rgb(1,1,1);fill-rule:nonzero;"/>
                    <path d="M1225.29,1066.85C1237.29,1090.13 1254.29,1117.32 1284.58,1113.16C1315.31,1108.94 1329.65,1075.44 1333.58,1048.23C1334.44,1042.23 1326.64,1039.93 1324.49,1045.72C1316.78,1066.46 1308.15,1093.32 1282.49,1097.87C1259.39,1101.97 1244.6,1078.29 1234.74,1061.32C1231.17,1055.18 1222.07,1060.6 1225.27,1066.85L1225.29,1066.85Z" style="fill:rgb(1,1,1);fill-rule:nonzero;"/>
                    <path d="M1135.5,1051C1125.98,1039.34 1099.5,1041.06 1086.94,1043.63C1071.34,1046.83 1058.04,1052.69 1046.63,1063.79C1040.91,1069.36 1036.1,1079.91 1039.28,1087.23C1041.59,1092.56 1045.74,1095.23 1051.28,1096.89C1066.12,1101.21 1081.67,1102.57 1097.03,1100.89C1109.83,1099.46 1123.03,1095.54 1131.89,1086.21C1140.75,1076.88 1143.64,1061 1135.5,1051Z" style="fill:rgb(242,123,163);fill-rule:nonzero;"/>
                    <path d="M1456.65,983.11C1451.65,976.18 1434.59,974.98 1419.56,980.06C1413.15,982.23 1403.82,983.92 1395.06,990.95C1386.3,997.98 1382.69,1010.03 1390.56,1017.68C1395.95,1022.93 1405.13,1024.78 1413.71,1024.95C1428.41,1025.26 1443.71,1021.18 1453.21,1012.3C1462.71,1003.42 1463.87,993.2 1456.65,983.11Z" style="fill:rgb(242,123,163);fill-rule:nonzero;"/>
                    <path d="M371,1309.92C388.48,1345 394.41,1385.32 389.76,1424.17C387.507,1442.98 382.723,1461.39 375.54,1478.92C369.54,1493.41 353.89,1510.78 354.83,1526.65C355.09,1531.02 359.08,1534.71 363.62,1533.34C380.17,1528.34 387.87,1505.87 393.81,1491.09C401.998,1470.57 407.074,1448.94 408.87,1426.92C412.51,1383.62 402.87,1341.39 382.78,1303.04C378.69,1295.23 367.11,1302.1 371,1309.92Z" style="fill:rgb(1,1,1);fill-rule:nonzero;"/>
                    <path d="M246.1,1328.55C236.004,1351.25 221.37,1371.65 203.1,1388.49C185.4,1404.93 163.9,1414.34 145.24,1429.04C137.07,1435.48 146.24,1446.5 154.48,1444.91C179.21,1440.14 202.92,1419.02 219.34,1400.86C236.96,1381.37 250.15,1358.69 260.04,1334.44C263.29,1326.44 249.6,1320.64 246.04,1328.55L246.1,1328.55Z" style="fill:rgb(1,1,1);fill-rule:nonzero;"/>
                    <path d="M879,1380.54C886.014,1419.3 885.675,1459.04 878,1497.68C870.62,1534.78 853.34,1565.61 839.79,1600.29C836.6,1608.45 849.18,1615.74 854.69,1608.97C879.3,1578.8 891.02,1534.36 896.99,1496.59C903.31,1456.64 901.62,1416.14 893.13,1376.65C891.13,1367.35 877.34,1371.37 879,1380.54Z" style="fill:rgb(1,1,1);fill-rule:nonzero;"/>
                    <path d="M995.39,1455.19C1001.77,1477.03 1005.5,1499.56 1006.51,1522.29C1007.38,1541.66 1002.45,1562.84 1006.81,1581.65C1008.38,1588.42 1018.71,1589.91 1021.95,1583.65C1031.61,1564.87 1028.75,1539.4 1026.68,1518.96C1024.34,1495.72 1018.82,1472.96 1011.36,1450.82C1007.99,1440.82 992.36,1444.89 995.36,1455.22L995.39,1455.19Z" style="fill:rgb(1,1,1);fill-rule:nonzero;"/>
                    <path d="M1317.06,720.71C1322.33,669.15 1332.54,612.04 1357.51,565.97C1379.31,525.78 1421.8,505.29 1459.37,538.51C1465.13,543.6 1475.82,538.82 1473.11,530.51C1456.02,478.2 1382.38,498.51 1355.77,529.84C1336.42,552.59 1326.24,581.5 1317.97,609.76C1307.53,645.985 1300.65,683.14 1297.43,720.7C1296.3,733.32 1315.79,733.12 1317.06,720.7L1317.06,720.71Z" style="fill:rgb(1,1,1);fill-rule:nonzero;"/>
                    <path d="M1128.57,731.2C1112.93,672.83 1112.09,611.1 1122.04,551.65C1126.14,527.17 1129.8,497.56 1144.33,476.65C1158.7,455.98 1184.98,452.97 1200.41,473.65C1204.32,478.88 1213.71,477.72 1213.59,470.08C1213.21,446.08 1186.25,436.32 1165.76,439.08C1135.94,443.08 1119.89,471.39 1112.02,497.72C1089.33,573.66 1089.43,660.07 1112.1,735.79C1115.25,746.29 1131.42,741.91 1128.57,731.25L1128.57,731.2Z" style="fill:rgb(1,1,1);fill-rule:nonzero;"/>
                    <path d="M967,549.31C953.52,547.85 940.073,546.617 926.66,545.61C881.858,542.227 836.914,541.126 792,542.31C736.52,650.54 702.55,785 685.72,900.91C668.09,1022.24 674.19,1145.6 693.02,1266.42C702.67,1328.28 727.15,1406.62 763.65,1465.54C824.427,1467.4 885.259,1464.78 945.65,1457.69C912.82,1398.91 883.76,1309.69 872.56,1255.33C860.94,1198.91 848.28,1117.33 846.11,1059.79C841.88,948.74 857,857.92 884,749.92C898.3,692.69 935.32,603.13 967,549.31Z" style="fill:rgb(1,1,1);fill-rule:nonzero;"/>
                    <path d="M529,644.61C476,626.61 424,602.61 424,602.61C404.267,608.53 384.6,614.947 365,621.86C330,712.33 307,812.05 294.14,900.86C276.51,1022.19 282.61,1145.55 301.45,1266.37C307.287,1302.56 316.394,1338.15 328.66,1372.7C398.03,1402.18 471.23,1423.92 544.35,1439.23C515.59,1381.44 491.03,1304.23 480.94,1255.23C469.46,1198.79 462.67,1141.49 460.64,1083.93C456.45,972.87 465.43,857.82 492.42,749.82C499.85,720.33 513.32,682.09 529,644.61Z" style="fill:rgb(1,1,1);fill-rule:nonzero;"/>
                    <path d="M355.66,183.15C316.98,180.89 261.89,200.71 248.32,241.15C247.47,243.68 250.92,245.51 252.7,243.7C266.89,229.24 276.86,214.5 295.24,204.3C313.89,193.94 334.46,189.64 355.66,190.8C360.61,191.07 360.58,183.4 355.66,183.11L355.66,183.15Z" style="fill:rgb(1,1,1);fill-rule:nonzero;"/>
                    <path d="M312.15,116.21C245.77,116.81 167.15,149.32 133.4,209.75C131.79,212.64 135.73,215.93 138.1,213.37C160.95,188.61 182.64,165.63 212.79,149.51C243.396,133.228 277.483,124.565 312.15,124.26C317.33,124.2 317.35,116.16 312.15,116.21Z" style="fill:rgb(1,1,1);fill-rule:nonzero;"/>
                    <path d="M937.15,82.3C956.286,88.745 973.639,99.606 987.8,114C1001.59,128.13 1007.24,145.65 1018.74,160.83C1020.28,162.83 1024.27,162.53 1024.09,159.38C1023,140.35 1006.87,121 993.78,108C978.398,92.866 959.729,81.483 939.23,74.74C934.45,73.13 932.43,80.64 937.15,82.26L937.15,82.3Z" style="fill:rgb(1,1,1);fill-rule:nonzero;"/>
                    <path d="M963.8,7.5C1009.96,33.418 1045.19,75.213 1062.92,125.09C1068.66,141.33 1070.24,158.86 1076.32,174.83C1077.51,177.97 1081.53,177.28 1081.95,174.07C1086.28,140.67 1064.89,99.88 1046.84,73.12C1026.56,43.074 999.496,18.213 967.84,0.55C963.31,-1.99 959.26,4.95 963.77,7.55L963.8,7.5Z" style="fill:rgb(1,1,1);fill-rule:nonzero;"/>
                    <path d="M873.56,1464C867.862,1451.12 864.86,1437.2 864.74,1423.12C882.92,1414.99 900.28,1402.73 914.3,1390.53C911.09,1382.53 907.99,1374.35 905.01,1366.2L904.09,1367.04C893.347,1377.01 881.621,1385.87 869.09,1393.47C870.111,1390.13 871.31,1386.85 872.68,1383.64C878.31,1370.52 887.13,1357.09 898.31,1347.18C895.46,1338.82 892.76,1330.52 890.23,1322.38C879.51,1330.46 870.23,1341.25 863.78,1350.32C852.013,1366.72 844.488,1385.78 841.88,1405.79C825.01,1410.62 808.79,1409.08 797.88,1394.1C787.72,1380.2 784.27,1361.62 782.88,1344.83C782.28,1337.41 781.88,1329.91 781.83,1322.41C806.7,1315.31 830.95,1304.58 853.48,1292.22C861.48,1287.83 869.68,1283.11 877.76,1278.05C875.76,1270.05 874,1262.38 872.55,1255.35C872.35,1254.4 872.16,1253.42 871.96,1252.46C844.62,1271.46 814.631,1286.33 782.96,1296.59C783.46,1291.78 784.11,1286.98 784.96,1282.23C792.1,1243.73 813.1,1206.93 851.96,1193.67C854.862,1192.68 857.812,1191.83 860.8,1191.14C859.51,1183.21 858.27,1175.14 857.08,1167.07L856.76,1167.13C804.17,1178.19 770.93,1225.25 761.57,1275.78C759.917,1284.84 758.775,1293.98 758.15,1303.17C741.29,1306.33 723.64,1306.31 708.43,1297.47C703.947,1294.91 699.996,1291.52 696.79,1287.47C699.06,1298.91 701.79,1310.73 704.93,1322.75C721.38,1329.62 739.74,1330.45 757.57,1327.87C757.809,1337.95 758.62,1348.01 760,1358C763.09,1380 770.42,1403.84 787.75,1418.88C803.32,1432.39 822.02,1434.82 841.03,1430.88C841.823,1442.57 844.202,1454.1 848.1,1465.15C856.607,1464.86 865.093,1464.47 873.56,1464Z" style="fill:rgb(41,43,43);fill-rule:nonzero;"/>
                    <path d="M788.17,563C785.743,563.607 783.32,564.23 780.9,564.87C771.53,584.78 762.83,605.43 754.78,626.56C811.328,612.123 865.12,588.487 914,556.6C917.835,554.099 920,549.683 919.63,545.12C894.543,543.353 869.397,542.313 844.19,542C829.128,545.801 814.426,550.907 800.25,557.26C796.17,559.087 792.143,561 788.17,563ZM793.44,587.68C794.63,587.02 795.85,586.4 797.05,585.76C802.383,584.427 807.717,583.17 813.05,581.99C804.003,585.663 794.857,589.073 785.61,592.22C788.197,590.7 790.807,589.2 793.44,587.72L793.44,587.68Z" style="fill:rgb(41,43,43);fill-rule:nonzero;"/>
                    <path d="M764.17,1035.23L768.96,1033.63C749.498,1046.67 730.73,1060.72 712.73,1075.71C700.42,1085.98 688.12,1096.62 676.59,1107.91C677.11,1118.99 677.777,1130.06 678.59,1141.13C682.78,1134.21 691.03,1128.03 696.67,1122.63C709.85,1109.96 723.55,1097.9 737.77,1086.45C766.478,1063.33 797.125,1042.73 829.37,1024.88C834.703,1021.92 840.067,1019.05 845.46,1016.26C845.553,1004.73 845.857,993.367 846.37,982.16L771.53,1007.16L691.08,1034.09C686.08,1035.78 680.75,1037.64 675.34,1039.38C675.253,1047.77 675.253,1056.16 675.34,1064.56L677.11,1064.07C706.41,1055.61 735.22,1044.92 764.17,1035.23Z" style="fill:rgb(41,43,43);fill-rule:nonzero;"/>
                    <path d="M705.78,1183C698.22,1190.72 691.272,1199.01 685,1207.81C686.687,1222.05 688.573,1236.27 690.66,1250.46C690.97,1249.3 691.31,1248.14 691.66,1246.98C698.99,1224.98 715.46,1207.25 731.66,1191.42C749.415,1174.05 768.263,1157.83 788.09,1142.87C794.71,1137.87 801.47,1133.12 808.29,1128.43C822.23,1122.82 836.1,1117.04 849.9,1111.1C848.63,1098.95 847.59,1087.1 846.9,1075.98L846.23,1076.36C829.25,1085.75 812.757,1095.95 796.75,1106.95C762.083,1120.81 727.04,1133.62 691.62,1145.39C688.38,1146.46 682.62,1149.01 679.16,1149.06C679.827,1157.28 680.537,1165.49 681.29,1173.69C693.09,1172.35 705.73,1166.29 715.37,1163C721.277,1161 727.183,1158.95 733.09,1156.84C723.69,1165.24 714.55,1173.92 705.78,1183Z" style="fill:rgb(41,43,43);fill-rule:nonzero;"/>
                    <path d="M905.59,682.41C888.723,688.563 872.057,695.27 855.59,702.53C841.421,705.037 827.091,706.531 812.71,707C822.11,692.54 837.56,681.62 851,671.52C870.574,656.818 890.985,643.266 912.13,630.93C918.37,627.3 924.68,623.81 931.04,620.4C936.58,608 942.27,596 948,584.6C944.51,586.26 941,587.93 937.57,589.6C927.91,593.073 918.217,596.467 908.49,599.78C864.72,614.7 819.81,629 773.55,633.09C766.37,633.72 759.14,634.09 751.91,634.25C748.823,642.57 745.823,650.953 742.91,659.4C757.66,659.97 773.47,657.62 786.91,655.92C807.516,653.22 827.923,649.175 848,643.81C841.23,648.69 834.52,653.66 827.94,658.81C808.25,674.16 788.94,690.95 782.27,715.96C782.013,716.96 781.883,717.989 781.883,719.021C781.883,725.698 787.324,731.216 794,731.31L797,731.31C788.68,735.837 780.433,740.503 772.26,745.31C749.609,758.762 727.648,773.344 706.46,789C703.727,801.073 701.17,813.073 698.79,825C705.64,819.58 712.66,814.34 719.66,809.19C743.96,791.349 769.268,774.925 795.46,760C817.32,747.52 839.73,736.163 862.69,725.93C872.89,724.023 882.983,721.64 892.97,718.78C896.68,707.17 900.92,694.93 905.59,682.41Z" style="fill:rgb(41,43,43);fill-rule:nonzero;"/>
                    <path d="M854.89,892.83C856.12,884.26 857.43,875.69 858.89,867.1C856.844,866.575 854.68,866.744 852.74,867.58C851.74,867.97 850.81,868.4 849.84,868.8L849.23,869.06C843.75,871.33 838.23,873.65 832.86,876.06C794.04,892.373 754.593,907.063 714.52,920.13C703.7,923.67 692.837,927.083 681.93,930.37C680.937,939.083 680.057,947.8 679.29,956.52L685.69,954.6C693.11,952.367 700.51,950.08 707.89,947.74C697.777,955.027 687.87,962.59 678.17,970.43C677.35,981.49 676.707,992.56 676.24,1003.64C725.481,960.83 780.804,925.565 840.4,899C845.24,897 850.06,894.9 854.89,892.83Z" style="fill:rgb(41,43,43);fill-rule:nonzero;"/>
                    <path d="M781.61,804C752.69,814.893 724.137,826.793 695.95,839.7C693.597,852.14 691.433,864.453 689.46,876.64C750.152,863.094 809.673,844.75 867.46,821.78C870.83,805.5 874.53,789.01 878.57,772.15C871.91,773.84 865.3,775.75 858.73,777.74C832.75,785.647 807.043,794.4 781.61,804Z" style="fill:rgb(41,43,43);fill-rule:nonzero;"/>
                    <path d="M466.71,897.36C457.503,901.08 448.223,904.627 438.87,908C407.3,880.18 360.81,870.82 319.76,883.81C333.1,864.64 352.76,850.93 373.89,840.81C382.608,836.687 391.56,833.078 400.7,830C409.4,829.607 418.067,828.84 426.7,827.7C440.92,825.8 456.89,823.94 469.95,817.05C472.69,816.95 475.423,816.9 478.15,816.9C480.677,802.82 483.487,788.82 486.58,774.9C479.49,761.52 464.35,755.25 450.58,751.06C415.26,740.29 377.69,738.55 341.34,744.48C335.86,745.38 330.393,746.48 324.94,747.78C322.62,756.72 320.4,765.663 318.28,774.61C353.453,763.92 390.768,762.313 426.73,769.94C437.73,772.32 452.6,774.64 461.56,782.19C467.18,786.92 465.91,790.65 462.02,793.5C456.71,793.86 451.41,794.37 446.15,795.06C429.147,797.24 412.366,800.901 396,806C378.926,806.488 361.846,805.313 345,802.49C334.342,800.828 323.793,798.527 313.41,795.6C311.643,803.6 309.96,811.543 308.36,819.43C321.159,823.151 334.238,825.826 347.47,827.43C328.04,839.05 311.03,853.88 298.58,872.43C296.99,882.02 295.49,891.54 294.13,900.91C287.589,946.573 284.111,992.623 283.72,1038.75C288.16,1052.18 295.28,1063.99 306.09,1071.6C298.146,1074.83 290.744,1079.25 284.14,1084.72C284.46,1096.26 284.943,1107.8 285.59,1119.34C286.06,1118.61 286.51,1117.86 287,1117.13C304.14,1091.69 331.56,1085.96 360.49,1091.72C373.63,1094.34 389.07,1097.72 400.67,1104.72C414.49,1112.97 414.52,1128.52 406.34,1141.16C399.34,1151.97 387.72,1158.99 376.84,1165.34C363.16,1173.34 349.28,1181.11 335.11,1188.2C324.35,1193.59 308.85,1201.59 293.17,1206.13C294.09,1213.89 295.063,1221.65 296.09,1229.4C327.98,1221.8 357.89,1204.2 385.83,1188.19C413.15,1172.54 444.65,1146.6 434.75,1110.73C428.37,1087.65 403.82,1076.29 379.58,1070.54C381.433,1069.82 383.273,1069.09 385.1,1068.35C403.1,1061.08 421.1,1053.35 436.66,1041.49C445.685,1034.67 453.506,1026.4 459.8,1017C460.1,990.91 461.14,964.72 463.03,938.58C461.001,934.746 458.74,931.039 456.26,927.48C458.9,926.48 461.53,925.48 464.16,924.48C464.92,915.38 465.75,906.36 466.71,897.36ZM304.52,917.8C332.14,900.98 365.31,895.36 397.17,909.8C401.943,911.977 406.543,914.514 410.93,917.39C386.93,924.963 362.597,931.353 337.93,936.56C326.37,939 313.4,942.32 300.27,944.56C300.909,935.534 302.331,926.58 304.52,917.8ZM449.08,973.3C450.74,1003.41 423.23,1024.04 399.2,1035.91C379.13,1045.82 340.91,1066.42 319.14,1051.59C298.68,1037.64 300.72,998.44 299.86,976.71C299.76,974.15 299.69,971.57 299.63,968.99C314.49,966.69 329.11,963.12 342.23,960.4C372.735,954.051 402.829,945.87 432.35,935.9C441.72,946.71 448.33,959.54 449.08,973.3Z" style="fill:rgb(41,43,43);fill-rule:nonzero;"/>
                    <path d="M423.39,1308.17C429.09,1305.02 434.69,1301.77 440.14,1298.45C453.78,1290.15 469.79,1280.39 483.94,1268.78C482.85,1264.1 481.85,1259.6 480.94,1255.33C479.94,1250.33 478.94,1245.33 478.04,1240.39C477.72,1240.68 477.41,1240.99 477.1,1241.28C462.58,1254.86 446.04,1266.66 428.81,1277.04C429.96,1271.78 431.17,1266.55 432.53,1261.35C438.19,1239.6 445.73,1199.85 469.78,1189.9C468.65,1181.71 467.65,1173.51 466.73,1165.29C435.61,1173.73 422.84,1209.13 414.05,1237.56C408.524,1255.45 404.266,1273.71 401.31,1292.2C377,1304.52 350,1316 322.77,1319.05C319.38,1319.44 315.972,1319.65 312.56,1319.69C314.56,1327.58 316.773,1335.53 319.2,1343.56C326.047,1343.09 332.856,1342.16 339.58,1340.78C359.12,1336.78 378.5,1329.94 397.11,1321.45C395.65,1333.51 394.93,1345.82 396.91,1357.18C399.91,1374.18 413.91,1383.97 426.29,1394.44L452.29,1416.44C467.51,1420.84 482.79,1424.93 498.13,1428.72C498.35,1425.72 497.22,1422.72 494.13,1420.09L454.28,1386.45C448.24,1381.36 442.203,1376.26 436.17,1371.16C430.64,1366.49 423.12,1361.65 420.98,1354.39C417.23,1341.7 421.36,1324.17 422.92,1311.23C423.09,1310.2 423.26,1309.19 423.39,1308.17Z" style="fill:rgb(41,43,43);fill-rule:nonzero;"/>
                    <path d="M360.32,634.41C356.987,643.45 353.75,652.56 350.61,661.74C382.782,651.942 416.731,649.411 450,654.33C473.203,657.828 495.677,665.101 516.53,675.86C519.39,668.35 522.38,660.77 525.47,653.18C474.307,627.857 415.861,621.214 360.32,634.41Z" style="fill:rgb(41,43,43);fill-rule:nonzero;"/>
                    <path d="M724.3,660.27C724.177,659.427 723.934,658.605 723.58,657.83C699.91,573.83 653.71,497.62 596.02,432.22C539.84,368.51 463.49,305.13 378.1,287.94C333.33,278.94 294.66,288.04 263.24,322.4C236.55,351.58 232.7,392.4 239.01,429.85C253.72,517.13 333.09,573.56 407.46,609.85C454.296,632.535 503.798,649.246 554.8,659.59C606.16,670.12 663.06,678.1 715.37,671.48C718.833,671.123 721.87,668.982 723.37,665.84C724.554,664.241 724.9,662.167 724.3,660.27Z" style="fill:rgb(148,215,231);fill-rule:nonzero;"/>
                    <path d="M654.25,608.76C610.83,556.91 568,504.44 523.75,453.32C503.38,429.81 482.11,406.95 458.46,386.67C440.09,370.93 416.98,352.43 391.17,360.54C346.62,374.54 333.64,431.96 344.94,471.96C358.46,519.79 402.35,551.79 446.34,569.73C479.89,583.42 515.51,590.61 550.53,599.42C583.65,607.75 616.73,614.16 650.82,617.05C657.04,617.58 657.01,607.87 650.82,607.34C596.21,602.7 542.13,589 489.5,574.06C441.63,560.52 391.05,538.29 364.72,493.48C342.87,456.29 344.12,394.48 387.64,372.48C416.64,357.83 444.95,386.94 464.54,405.11C484.13,423.28 502.25,443.2 519.73,463.49C562.92,513.65 604.89,564.9 647.38,615.64C651.38,620.44 658.24,613.54 654.25,608.77L654.25,608.76Z" style="fill:rgb(171,223,233);fill-rule:nonzero;"/>
                </g>
            </g>
        </g>
    </g>
</svg>
